<mxfile host="app.diagrams.net" modified="2022-03-23T06:21:26.244Z" agent="5.0 (Windows NT 10.0; Win64; x64) AppleWebKit/537.36 (KHTML, like Gecko) Chrome/99.0.4844.51 Safari/537.36" etag="wWqOR0MPuRAmxoU2nYFM" version="17.1.3" type="github">
  <diagram id="cRzlzBvyMLGwdJzJPwRj" name="Page-1">
    <mxGraphModel dx="1640" dy="454" grid="1" gridSize="10" guides="1" tooltips="1" connect="1" arrows="1" fold="1" page="1" pageScale="1" pageWidth="827" pageHeight="1169" math="0" shadow="0">
      <root>
        <mxCell id="0" />
        <mxCell id="1" parent="0" />
        <mxCell id="N3w-Lasd4Tz9Ui_GBEL--3" style="edgeStyle=orthogonalEdgeStyle;rounded=0;orthogonalLoop=1;jettySize=auto;html=1;exitX=0.5;exitY=1;exitDx=0;exitDy=0;entryX=0.5;entryY=0;entryDx=0;entryDy=0;" parent="1" source="N3w-Lasd4Tz9Ui_GBEL--1" target="N3w-Lasd4Tz9Ui_GBEL--2" edge="1">
          <mxGeometry relative="1" as="geometry" />
        </mxCell>
        <mxCell id="N3w-Lasd4Tz9Ui_GBEL--1" value="开始" style="ellipse;whiteSpace=wrap;html=1;aspect=fixed;" parent="1" vertex="1">
          <mxGeometry x="-440" y="89" width="80" height="80" as="geometry" />
        </mxCell>
        <mxCell id="N3w-Lasd4Tz9Ui_GBEL--5" style="edgeStyle=orthogonalEdgeStyle;rounded=0;orthogonalLoop=1;jettySize=auto;html=1;exitX=0.5;exitY=1;exitDx=0;exitDy=0;entryX=0.5;entryY=0;entryDx=0;entryDy=0;" parent="1" source="N3w-Lasd4Tz9Ui_GBEL--2" target="N3w-Lasd4Tz9Ui_GBEL--4" edge="1">
          <mxGeometry relative="1" as="geometry" />
        </mxCell>
        <mxCell id="N3w-Lasd4Tz9Ui_GBEL--2" value="中控选择任务出库" style="rounded=1;whiteSpace=wrap;html=1;" parent="1" vertex="1">
          <mxGeometry x="-460" y="209" width="120" height="60" as="geometry" />
        </mxCell>
        <mxCell id="N3w-Lasd4Tz9Ui_GBEL--58" style="edgeStyle=orthogonalEdgeStyle;rounded=0;orthogonalLoop=1;jettySize=auto;html=1;exitX=0.5;exitY=1;exitDx=0;exitDy=0;entryX=0.5;entryY=0;entryDx=0;entryDy=0;" parent="1" source="N3w-Lasd4Tz9Ui_GBEL--4" target="N3w-Lasd4Tz9Ui_GBEL--56" edge="1">
          <mxGeometry relative="1" as="geometry" />
        </mxCell>
        <mxCell id="N3w-Lasd4Tz9Ui_GBEL--4" value="中控调度出库任务" style="rounded=1;whiteSpace=wrap;html=1;" parent="1" vertex="1">
          <mxGeometry x="-460" y="289" width="120" height="60" as="geometry" />
        </mxCell>
        <mxCell id="N3w-Lasd4Tz9Ui_GBEL--54" style="edgeStyle=orthogonalEdgeStyle;rounded=0;orthogonalLoop=1;jettySize=auto;html=1;exitX=0.5;exitY=1;exitDx=0;exitDy=0;entryX=0.5;entryY=0;entryDx=0;entryDy=0;" parent="1" source="N3w-Lasd4Tz9Ui_GBEL--9" target="N3w-Lasd4Tz9Ui_GBEL--53" edge="1">
          <mxGeometry relative="1" as="geometry" />
        </mxCell>
        <mxCell id="N3w-Lasd4Tz9Ui_GBEL--9" value="中控释放集货位" style="rounded=1;whiteSpace=wrap;html=1;" parent="1" vertex="1">
          <mxGeometry x="-460" y="599" width="120" height="60" as="geometry" />
        </mxCell>
        <mxCell id="N3w-Lasd4Tz9Ui_GBEL--16" value="&lt;div style=&quot;text-align: center&quot;&gt;&lt;span&gt;&lt;font face=&quot;helvetica&quot; style=&quot;font-size: 18px&quot;&gt;中控调度出库任务&lt;/font&gt;&lt;/span&gt;&lt;/div&gt;" style="text;whiteSpace=wrap;html=1;" parent="1" vertex="1">
          <mxGeometry x="170" y="79" width="120" height="30" as="geometry" />
        </mxCell>
        <mxCell id="N3w-Lasd4Tz9Ui_GBEL--17" value="&lt;div style=&quot;text-align: center&quot;&gt;&lt;span&gt;&lt;font face=&quot;helvetica&quot; style=&quot;font-size: 18px&quot;&gt;中控出库流程&lt;/font&gt;&lt;/span&gt;&lt;/div&gt;" style="text;whiteSpace=wrap;html=1;" parent="1" vertex="1">
          <mxGeometry x="-650" y="79" width="120" height="30" as="geometry" />
        </mxCell>
        <mxCell id="N3w-Lasd4Tz9Ui_GBEL--20" style="edgeStyle=orthogonalEdgeStyle;rounded=0;orthogonalLoop=1;jettySize=auto;html=1;exitX=0.5;exitY=1;exitDx=0;exitDy=0;entryX=0.5;entryY=0;entryDx=0;entryDy=0;" parent="1" source="N3w-Lasd4Tz9Ui_GBEL--18" target="N3w-Lasd4Tz9Ui_GBEL--42" edge="1">
          <mxGeometry relative="1" as="geometry">
            <mxPoint x="329.49" y="226.88" as="targetPoint" />
          </mxGeometry>
        </mxCell>
        <mxCell id="N3w-Lasd4Tz9Ui_GBEL--18" value="开始" style="ellipse;whiteSpace=wrap;html=1;aspect=fixed;" parent="1" vertex="1">
          <mxGeometry x="290" y="119" width="80" height="80" as="geometry" />
        </mxCell>
        <mxCell id="N3w-Lasd4Tz9Ui_GBEL--24" style="edgeStyle=orthogonalEdgeStyle;rounded=0;orthogonalLoop=1;jettySize=auto;html=1;exitX=1;exitY=0.5;exitDx=0;exitDy=0;entryX=0;entryY=0.5;entryDx=0;entryDy=0;" parent="1" source="N3w-Lasd4Tz9Ui_GBEL--21" target="N3w-Lasd4Tz9Ui_GBEL--23" edge="1">
          <mxGeometry relative="1" as="geometry" />
        </mxCell>
        <mxCell id="N3w-Lasd4Tz9Ui_GBEL--27" value="否" style="edgeLabel;html=1;align=center;verticalAlign=middle;resizable=0;points=[];" parent="N3w-Lasd4Tz9Ui_GBEL--24" vertex="1" connectable="0">
          <mxGeometry x="-0.2279" relative="1" as="geometry">
            <mxPoint as="offset" />
          </mxGeometry>
        </mxCell>
        <mxCell id="N3w-Lasd4Tz9Ui_GBEL--26" style="edgeStyle=orthogonalEdgeStyle;rounded=0;orthogonalLoop=1;jettySize=auto;html=1;exitX=0.5;exitY=1;exitDx=0;exitDy=0;entryX=0.5;entryY=0;entryDx=0;entryDy=0;" parent="1" source="N3w-Lasd4Tz9Ui_GBEL--21" target="N3w-Lasd4Tz9Ui_GBEL--29" edge="1">
          <mxGeometry relative="1" as="geometry">
            <mxPoint x="330" y="560" as="targetPoint" />
          </mxGeometry>
        </mxCell>
        <mxCell id="N3w-Lasd4Tz9Ui_GBEL--28" value="是" style="edgeLabel;html=1;align=center;verticalAlign=middle;resizable=0;points=[];" parent="N3w-Lasd4Tz9Ui_GBEL--26" vertex="1" connectable="0">
          <mxGeometry x="-0.7306" y="1" relative="1" as="geometry">
            <mxPoint x="-1" y="5" as="offset" />
          </mxGeometry>
        </mxCell>
        <mxCell id="N3w-Lasd4Tz9Ui_GBEL--21" value="出库任务数≤集货位数量？" style="rhombus;whiteSpace=wrap;html=1;" parent="1" vertex="1">
          <mxGeometry x="245" y="440" width="170" height="80" as="geometry" />
        </mxCell>
        <mxCell id="N3w-Lasd4Tz9Ui_GBEL--23" value="多余出库任务缓存" style="rounded=1;whiteSpace=wrap;html=1;" parent="1" vertex="1">
          <mxGeometry x="450" y="450" width="120" height="60" as="geometry" />
        </mxCell>
        <mxCell id="N3w-Lasd4Tz9Ui_GBEL--31" style="edgeStyle=orthogonalEdgeStyle;rounded=0;orthogonalLoop=1;jettySize=auto;html=1;exitX=0.5;exitY=1;exitDx=0;exitDy=0;entryX=0.5;entryY=0;entryDx=0;entryDy=0;" parent="1" source="N3w-Lasd4Tz9Ui_GBEL--29" target="N3w-Lasd4Tz9Ui_GBEL--30" edge="1">
          <mxGeometry relative="1" as="geometry" />
        </mxCell>
        <mxCell id="N3w-Lasd4Tz9Ui_GBEL--29" value="根据集货位优先级对任务排序（为RCS指定库位和集货位）" style="rounded=1;whiteSpace=wrap;html=1;" parent="1" vertex="1">
          <mxGeometry x="270" y="560" width="120" height="60" as="geometry" />
        </mxCell>
        <mxCell id="N3w-Lasd4Tz9Ui_GBEL--30" value="中控发任务给RCS" style="rounded=1;whiteSpace=wrap;html=1;" parent="1" vertex="1">
          <mxGeometry x="270" y="651" width="120" height="60" as="geometry" />
        </mxCell>
        <mxCell id="N3w-Lasd4Tz9Ui_GBEL--39" style="edgeStyle=orthogonalEdgeStyle;rounded=0;orthogonalLoop=1;jettySize=auto;html=1;exitX=1;exitY=0.5;exitDx=0;exitDy=0;entryX=0;entryY=0.5;entryDx=0;entryDy=0;" parent="1" edge="1">
          <mxGeometry relative="1" as="geometry">
            <mxPoint x="605" y="270" as="sourcePoint" />
          </mxGeometry>
        </mxCell>
        <mxCell id="N3w-Lasd4Tz9Ui_GBEL--47" style="edgeStyle=orthogonalEdgeStyle;rounded=0;orthogonalLoop=1;jettySize=auto;html=1;exitX=0.5;exitY=1;exitDx=0;exitDy=0;entryX=0.5;entryY=0;entryDx=0;entryDy=0;" parent="1" source="N3w-Lasd4Tz9Ui_GBEL--42" target="N3w-Lasd4Tz9Ui_GBEL--48" edge="1">
          <mxGeometry relative="1" as="geometry">
            <mxPoint x="330" y="330" as="targetPoint" />
          </mxGeometry>
        </mxCell>
        <mxCell id="N3w-Lasd4Tz9Ui_GBEL--42" value="获取空闲集货位列表" style="rounded=1;whiteSpace=wrap;html=1;" parent="1" vertex="1">
          <mxGeometry x="270" y="240" width="120" height="60" as="geometry" />
        </mxCell>
        <mxCell id="N3w-Lasd4Tz9Ui_GBEL--52" style="edgeStyle=orthogonalEdgeStyle;rounded=0;orthogonalLoop=1;jettySize=auto;html=1;exitX=0.5;exitY=1;exitDx=0;exitDy=0;entryX=0.5;entryY=0;entryDx=0;entryDy=0;" parent="1" source="N3w-Lasd4Tz9Ui_GBEL--48" target="N3w-Lasd4Tz9Ui_GBEL--21" edge="1">
          <mxGeometry relative="1" as="geometry" />
        </mxCell>
        <mxCell id="N3w-Lasd4Tz9Ui_GBEL--48" value="从缓存中获取任务" style="rounded=1;whiteSpace=wrap;html=1;" parent="1" vertex="1">
          <mxGeometry x="270" y="340" width="120" height="60" as="geometry" />
        </mxCell>
        <mxCell id="N3w-Lasd4Tz9Ui_GBEL--53" value="中控更新集货位状态为空闲" style="rounded=1;whiteSpace=wrap;html=1;" parent="1" vertex="1">
          <mxGeometry x="-460" y="690" width="120" height="60" as="geometry" />
        </mxCell>
        <mxCell id="N3w-Lasd4Tz9Ui_GBEL--60" style="edgeStyle=orthogonalEdgeStyle;rounded=0;orthogonalLoop=1;jettySize=auto;html=1;exitX=0.5;exitY=1;exitDx=0;exitDy=0;entryX=0.5;entryY=0;entryDx=0;entryDy=0;" parent="1" source="N3w-Lasd4Tz9Ui_GBEL--56" target="N3w-Lasd4Tz9Ui_GBEL--59" edge="1">
          <mxGeometry relative="1" as="geometry" />
        </mxCell>
        <mxCell id="N3w-Lasd4Tz9Ui_GBEL--61" value="否" style="edgeLabel;html=1;align=center;verticalAlign=middle;resizable=0;points=[];" parent="N3w-Lasd4Tz9Ui_GBEL--60" vertex="1" connectable="0">
          <mxGeometry x="-0.28" y="1" relative="1" as="geometry">
            <mxPoint as="offset" />
          </mxGeometry>
        </mxCell>
        <mxCell id="N3w-Lasd4Tz9Ui_GBEL--64" style="edgeStyle=orthogonalEdgeStyle;rounded=0;orthogonalLoop=1;jettySize=auto;html=1;exitX=1;exitY=0.5;exitDx=0;exitDy=0;entryX=0;entryY=0.5;entryDx=0;entryDy=0;" parent="1" source="N3w-Lasd4Tz9Ui_GBEL--56" target="N3w-Lasd4Tz9Ui_GBEL--63" edge="1">
          <mxGeometry relative="1" as="geometry" />
        </mxCell>
        <mxCell id="N3w-Lasd4Tz9Ui_GBEL--65" value="是" style="edgeLabel;html=1;align=center;verticalAlign=middle;resizable=0;points=[];" parent="N3w-Lasd4Tz9Ui_GBEL--64" vertex="1" connectable="0">
          <mxGeometry x="-0.2832" y="1" relative="1" as="geometry">
            <mxPoint as="offset" />
          </mxGeometry>
        </mxCell>
        <mxCell id="N3w-Lasd4Tz9Ui_GBEL--56" value="传感器异常？" style="rhombus;whiteSpace=wrap;html=1;" parent="1" vertex="1">
          <mxGeometry x="-480" y="379" width="160" height="70" as="geometry" />
        </mxCell>
        <mxCell id="N3w-Lasd4Tz9Ui_GBEL--62" style="edgeStyle=orthogonalEdgeStyle;rounded=0;orthogonalLoop=1;jettySize=auto;html=1;exitX=0.5;exitY=1;exitDx=0;exitDy=0;entryX=0.5;entryY=0;entryDx=0;entryDy=0;" parent="1" source="N3w-Lasd4Tz9Ui_GBEL--59" target="N3w-Lasd4Tz9Ui_GBEL--9" edge="1">
          <mxGeometry relative="1" as="geometry" />
        </mxCell>
        <mxCell id="N3w-Lasd4Tz9Ui_GBEL--59" value="中控收到RCS&lt;br&gt;任务完成回调" style="rounded=1;whiteSpace=wrap;html=1;" parent="1" vertex="1">
          <mxGeometry x="-460" y="499" width="120" height="60" as="geometry" />
        </mxCell>
        <mxCell id="N3w-Lasd4Tz9Ui_GBEL--67" style="edgeStyle=orthogonalEdgeStyle;rounded=0;orthogonalLoop=1;jettySize=auto;html=1;exitX=0.5;exitY=1;exitDx=0;exitDy=0;entryX=0.5;entryY=0;entryDx=0;entryDy=0;" parent="1" source="N3w-Lasd4Tz9Ui_GBEL--63" target="N3w-Lasd4Tz9Ui_GBEL--66" edge="1">
          <mxGeometry relative="1" as="geometry" />
        </mxCell>
        <mxCell id="N3w-Lasd4Tz9Ui_GBEL--63" value="无法收到任务完成回调" style="rounded=1;whiteSpace=wrap;html=1;" parent="1" vertex="1">
          <mxGeometry x="-280" y="384" width="120" height="60" as="geometry" />
        </mxCell>
        <mxCell id="1XdYHk9GoFmt2zoT3gbZ-2" style="edgeStyle=orthogonalEdgeStyle;rounded=0;orthogonalLoop=1;jettySize=auto;html=1;exitX=0.5;exitY=1;exitDx=0;exitDy=0;entryX=0.5;entryY=0;entryDx=0;entryDy=0;" parent="1" source="N3w-Lasd4Tz9Ui_GBEL--66" target="1XdYHk9GoFmt2zoT3gbZ-1" edge="1">
          <mxGeometry relative="1" as="geometry" />
        </mxCell>
        <mxCell id="N3w-Lasd4Tz9Ui_GBEL--66" value="手动释放集货位" style="rounded=1;whiteSpace=wrap;html=1;" parent="1" vertex="1">
          <mxGeometry x="-280" y="499" width="120" height="60" as="geometry" />
        </mxCell>
        <mxCell id="1XdYHk9GoFmt2zoT3gbZ-3" style="edgeStyle=orthogonalEdgeStyle;rounded=0;orthogonalLoop=1;jettySize=auto;html=1;exitX=0.5;exitY=1;exitDx=0;exitDy=0;entryX=1;entryY=0.5;entryDx=0;entryDy=0;" parent="1" source="1XdYHk9GoFmt2zoT3gbZ-1" target="N3w-Lasd4Tz9Ui_GBEL--53" edge="1">
          <mxGeometry relative="1" as="geometry" />
        </mxCell>
        <mxCell id="1XdYHk9GoFmt2zoT3gbZ-1" value="手动关闭故障传感器对应的出库集货位" style="rounded=1;whiteSpace=wrap;html=1;" parent="1" vertex="1">
          <mxGeometry x="-280" y="599" width="120" height="60" as="geometry" />
        </mxCell>
      </root>
    </mxGraphModel>
  </diagram>
</mxfile>
